<?xml version="1.0" encoding="iso-8859-1"?>
<!-- Generator: Adobe Illustrator 19.0.0, SVG Export Plug-In . SVG Version: 6.00 Build 0)  -->
<svg width="100%" height="100%" version="1.1" id="Layer_1" xmlns="http://www.w3.org/2000/svg" xmlns:xlink="http://www.w3.org/1999/xlink" x="0px" y="0px"
	 viewBox="0 0 455 455" style="enable-background:new 0 0 455 455;" xml:space="preserve">
<path d="M416.296,38.642c-51.523-51.523-135.058-51.523-186.581,0c-41.222,41.222-49.457,102.934-24.718,152.35L0.183,395.811
	l-0.122,59.059L114.593,455v-55.705h55.705l0-55.705h55.705l0-55.705l37.943-37.943c49.416,24.74,111.128,16.504,152.35-24.718
	C467.82,173.701,467.82,90.165,416.296,38.642z M374.355,137.001c-15.579,15.579-40.838,15.579-56.418,0s-15.579-40.838,0-56.418
	s40.838-15.579,56.418,0C389.935,96.163,389.935,121.422,374.355,137.001z"/>
</svg>
