<svg width="256" height="256" viewBox="0 0 256 256" fill="none" xmlns="http://www.w3.org/2000/svg">
    <rect width="256" height="256" rx="64" fill="white"/>
    <path fill-rule="evenodd" clip-rule="evenodd" d="M107.372 149.413H63.2507C51.9382 149.413 45.6202 158.703 41.9648 173.03H98.9706L99.7209 170.92L107.372 149.413ZM196.528 77.6315C198.793 77.6315 199.574 77.6315 201.838 77.6315C213.871 77.6315 220.438 64.6472 223.735 54H203.451H179.853L171.446 77.6315L145.91 149.413L137.503 173.044C164.327 173.044 170.992 149.413 170.992 149.413L196.528 77.6315Z" fill="#3A495E"/>
    <path fill-rule="evenodd" clip-rule="evenodd" d="M139.182 149.413L164.719 77.6315L173.126 54H158.233C155.605 54 147.684 55.0093 143.53 66.6852L139.637 77.6315L114.1 149.413L110.171 160.457C104.404 176.667 106.681 179.369 87.1206 179.369H40.0689L33 203H95.0361C112.423 203 122.427 194.842 128.525 179.369L130.775 173.044L139.182 149.413Z" fill="#455749"/>
</svg>
