<svg width="842" height="284" viewBox="0 0 842 284" fill="none" xmlns="http://www.w3.org/2000/svg">
<g clip-path="url(#clip0)">
<path d="M315.557 196.799H354.371C368.317 196.799 377.784 193.886 382.772 188.06C387.76 182.235 390.236 170.182 390.236 151.977V66.009H424.572V159.259C424.572 170.328 423.444 179.686 421.149 187.259C418.892 194.833 415.36 201.205 410.59 206.412C405.128 212.456 398.756 216.716 391.51 219.156C384.265 221.595 373.341 222.833 358.777 222.833H315.557V196.799ZM483.34 94.629H451.444V66.046H483.34V94.629ZM483.34 222.833H451.444V107.737H483.34V222.833ZM498.196 107.737H519.642V66.009H550.046V107.737H582.161V130.676H550.046V177.173C550.046 185.694 551.502 191.629 554.415 194.942C557.328 198.256 562.426 199.894 569.671 199.894H582.161V222.833H554.415C543.201 222.833 534.571 219.738 528.599 213.512C522.628 207.285 519.642 198.365 519.642 186.786V130.676H498.196V107.737ZM598.254 198.838H662.338C668.019 198.838 672.169 197.964 674.755 196.18C677.34 194.396 678.651 191.556 678.651 187.623C678.651 183.727 677.34 180.851 674.718 179.067C672.06 177.246 667.946 176.336 662.338 176.336H636.086C620.538 176.336 610.015 173.969 604.517 169.199C599.055 164.429 596.325 155.945 596.325 143.784C596.325 131.404 599.638 122.301 606.229 116.476C612.855 110.65 623.087 107.737 636.96 107.737H702.245V131.732H648.575C639.836 131.732 634.156 132.497 631.498 134.026C628.876 135.555 627.566 138.286 627.566 142.182C627.566 145.751 628.731 148.372 631.024 150.047C633.355 151.722 636.996 152.559 641.948 152.559H669.475C682.074 152.559 691.686 155.509 698.276 161.371C704.904 167.233 708.217 175.717 708.217 186.786C708.217 197.454 705.267 206.12 699.405 212.82C693.543 219.483 685.969 222.833 676.721 222.833H598.254V198.838ZM834.091 222.833H776.816C759.957 222.833 747.759 219.483 740.259 212.82C732.758 206.12 729.007 195.415 729.007 180.705V107.737H759.302V178.266C759.302 185.949 760.649 191.046 763.307 193.631C765.965 196.18 771.281 197.454 779.255 197.454H803.687V107.737H834.091V222.833Z" fill="#4E4D4B"/>
<path fillRule="evenodd" clipRule="evenodd" d="M127.503 179.118H54.301C35.533 179.118 25.051 194.531 18.986 218.3H113.564L114.809 214.799L127.503 179.118ZM275.42 60.026C279.178 60.026 280.473 60.026 284.23 60.026C304.193 60.026 315.088 38.484 320.557 20.82H286.905H247.754L233.807 60.026L191.44 179.118L177.492 218.324C221.995 218.324 233.053 179.118 233.053 179.118L275.42 60.026Z" fill="#3A495E"/>
<path fillRule="evenodd" clipRule="evenodd" d="M180.278 179.118L222.645 60.026L236.593 20.82H211.885C207.525 20.82 194.384 22.494 187.492 41.866L181.032 60.026L138.665 179.118L132.146 197.441C122.579 224.335 126.356 228.816 93.904 228.816H15.841L4.11298 268.023H107.036C135.883 268.023 152.479 254.488 162.598 228.816L166.33 218.324L180.278 179.118Z" fill="#455749"/>
<path d="M394.066 16.0309C393.611 16.0255 393.224 16.1229 392.915 16.2266C392.85 16.2488 392.786 16.275 392.724 16.3051C392.367 16.4419 392.045 16.5867 391.916 16.6323C382.762 19.8746 375.296 27.5554 369.797 35.939C364.805 43.5496 361.52 51.6441 360.064 58.0407C359.433 57.9925 358.791 58.033 358.187 58.2404C358.185 58.2411 358.184 58.2418 358.182 58.2425C356.504 58.8253 355.229 60.4643 354.82 62.3106C354.815 62.3121 354.809 62.3108 354.804 62.3127C354.803 62.3127 354.803 62.3127 354.802 62.3127C352.279 63.1868 350.716 66.4727 351.521 69.2103C351.521 69.211 351.521 69.2117 351.522 69.2124C351.981 70.7681 353.152 72.0052 354.544 72.6108C354.584 72.907 354.606 73.2072 354.689 73.4925C354.689 73.4939 354.69 73.4953 354.69 73.4967C355.496 76.2347 358.524 77.9313 361.048 77.0571C361.049 77.0568 361.05 77.0564 361.051 77.0561C362.25 76.6386 363.234 75.6714 363.86 74.4884C364.435 74.5099 365.014 74.4395 365.562 74.2509C365.563 74.2506 365.564 74.2502 365.565 74.2499C366.272 74.0051 366.875 73.543 367.4 72.9849C366.903 74.5518 366.835 76.2708 367.352 77.8287C367.352 77.8294 367.353 77.8301 367.353 77.8308C367.861 79.3558 368.893 80.6269 370.16 81.4952C371.949 84.0399 375.312 85.159 378.122 84.0618C378.123 84.0611 378.125 84.0604 378.126 84.0597C378.875 83.7649 379.546 83.2966 380.165 82.755C381.793 83.4827 383.674 83.5663 385.341 82.914C385.342 82.9136 385.343 82.9133 385.344 82.913C386.54 82.4422 387.583 81.5871 388.396 80.5298C390.084 81.377 392.085 81.5292 393.849 80.8417C393.851 80.8407 393.852 80.8396 393.854 80.8386C394.636 80.5304 395.332 80.0296 395.971 79.4533C397.332 79.8115 398.792 79.7445 400.114 79.2271C400.114 79.2267 400.115 79.2264 400.115 79.226C401.571 78.6551 402.8 77.519 403.646 76.1222C405.255 76.8124 407.093 76.914 408.731 76.2731C408.732 76.2727 408.733 76.2724 408.734 76.272C410.105 75.7331 411.271 74.6899 412.113 73.4058C413.782 74.2127 415.737 74.3664 417.47 73.6911C417.471 73.6905 417.473 73.6898 417.475 73.6891C418.795 73.1702 419.955 72.2107 420.791 70.993C421.623 70.994 422.454 70.8985 423.239 70.5934C423.24 70.5927 423.242 70.592 423.244 70.5913C424.569 70.07 425.727 69.0956 426.563 67.8718C427.978 68.2191 429.483 68.1471 430.849 67.6139C430.851 67.6132 430.853 67.6126 430.855 67.6119C432.04 67.1451 433.046 66.2827 433.885 65.2623C434.514 65.2061 435.138 65.0938 435.732 64.8628C435.734 64.8621 435.736 64.8614 435.739 64.8607C437.83 64.0384 439.46 62.0747 440.093 59.7815C442.49 57.863 443.719 54.2998 442.713 51.2642C442.713 51.2624 442.712 51.2607 442.711 51.2589C442.032 49.2254 440.455 47.6152 438.575 46.8739C436.945 45.0406 434.468 44.2484 432.144 44.7282C418.911 24.6993 406.359 16.1711 394.069 16.0306L394.066 16.0309ZM427.582 46.8293C420.286 46.561 435.025 47.288 427.747 46.8374C427.724 46.8362 427.701 46.8355 427.677 46.8353C427.558 46.8333 427.439 46.8333 427.32 46.8374C428.782 46.7835 432.523 46.6183 427.453 46.8303L427.582 46.8293ZM412.938 52.885C409.29 52.914 416.727 52.9371 413.084 52.886C409.96 52.8422 414.004 52.9336 413.208 52.8892C413.089 52.8866 412.969 52.8866 412.851 52.8902C412.82 52.8911 412.789 52.8928 412.759 52.8954C405.421 53.5331 420.164 52.3264 412.825 52.8902L412.938 52.885ZM411.121 53.204C410.993 53.2426 410.866 53.2854 410.741 53.3315C410.74 53.3318 410.739 53.332 410.738 53.3325C410.687 53.3508 410.637 53.3715 410.589 53.3947L410.745 53.3284C407.263 54.594 414.459 52.1032 410.945 53.2591C407.842 54.2796 412.276 52.8844 411.121 53.2041L411.121 53.204ZM405.46 56.2987L405.59 56.2997C398.297 55.9536 413.007 56.8087 405.73 56.3078C405.704 56.3061 405.677 56.3051 405.65 56.3047C405.533 56.3026 405.416 56.3026 405.299 56.3068C406.448 56.2901 410.737 56.1301 405.46 56.2987V56.2987ZM396.545 58.8867C392.896 58.9122 400.33 58.9402 396.686 58.8877C393.597 58.8432 397.47 58.9305 396.806 58.8908C396.689 58.8882 396.572 58.8882 396.454 58.8919C396.425 58.8929 396.396 58.8946 396.368 58.8971C389.03 59.5047 403.777 58.3623 396.438 58.8919L396.545 58.8867ZM391.019 60.7275L391.158 60.7307C383.872 60.2478 398.525 61.3229 391.251 60.7378C391.217 60.735 391.183 60.7333 391.149 60.7326C391.035 60.7305 390.922 60.731 390.809 60.7347C391.684 60.7009 393.301 60.6405 390.892 60.7305C387.238 60.8672 394.672 60.6609 391.019 60.7274V60.7275ZM383.927 62.6194H384.074C376.785 62.2549 391.498 63.1639 384.228 62.6296C384.2 62.6275 384.173 62.6261 384.145 62.6254C384.027 62.6228 383.91 62.6228 383.792 62.6264C385.417 62.5637 388.864 62.4242 383.927 62.6193V62.6194ZM371.889 63.759C371.973 64.5523 372.071 65.3691 372.188 66.2114C371.124 67.024 370.291 68.1584 369.771 69.4447C369.409 69.7527 369.048 70.0607 368.751 70.4405C369.031 69.4268 369.145 68.3646 368.846 67.351C368.846 67.3496 368.846 67.3482 368.845 67.3468C368.819 67.2588 368.751 67.1937 368.72 67.1073C369.698 66.2078 370.749 65.1117 371.889 63.7589L371.889 63.759ZM376.326 64.7864C369.03 64.5507 383.782 65.2265 376.504 64.7946C376.482 64.7934 376.459 64.7927 376.437 64.7925C376.43 64.7923 376.422 64.7926 376.415 64.7925C376.385 64.7897 376.356 64.7876 376.326 64.7864L376.326 64.7864ZM376.203 64.7885L376.209 64.7937C376.169 64.7943 376.129 64.7934 376.089 64.7948C377.767 64.7229 381.085 64.5813 376.203 64.7887L376.203 64.7885Z" fill="black"/>
<path d="M392.471 18.4749C375.212 24.5874 363.526 47.9586 361.334 60.3879C361.627 60.5677 361.894 60.7957 362.123 61.0638C362.32 60.942 362.528 60.8428 362.744 60.7677C364.465 60.1711 366.306 61.2019 366.856 63.07C367.194 64.225 366.966 65.4875 366.251 66.4185C366.335 66.5026 366.414 66.5914 366.489 66.6844C368.342 65.2051 370.684 62.6327 373.548 58.7194C373.509 58.7564 373.303 58.6779 373.224 58.2819C373.171 58.0598 373.152 57.7969 373.168 57.4693C373.198 56.8148 373.335 56.0922 373.602 55.1581C374.106 53.3817 374.927 51.353 376.18 49.0884C376.334 48.808 376.494 48.5255 376.66 48.2424C377.797 46.3035 378.972 44.7566 380.238 43.5352C381.035 42.7627 381.783 42.2314 382.517 41.8936C383.904 41.2416 384.717 41.6526 384.707 41.7649C384.692 41.9216 383.916 41.941 382.871 42.6387C382.262 43.0517 381.683 43.5865 380.98 44.375C379.864 45.6315 378.846 47.0947 377.735 48.9854C377.574 49.2586 377.417 49.5317 377.264 49.802C376.003 52.0319 375.156 53.824 374.473 55.5092C374.107 56.419 373.913 56.9518 373.744 57.5718C373.663 57.8768 373.623 58.0469 373.597 58.2504C373.577 58.4935 373.561 58.7068 373.548 58.7194C373.297 60.3018 373.607 63.7914 374.114 67.2357C374.233 67.1767 374.352 67.1222 374.474 67.0725C376.072 66.4488 377.84 66.6713 379.222 67.6702C379.836 66.3937 380.885 65.4041 382.153 64.9053C383.59 64.3438 385.174 64.4644 386.493 65.2356C387.125 64.2181 388.048 63.4385 389.124 63.0147C390.246 62.5754 391.469 62.5489 392.59 62.9395C393.2 62.1392 394.002 61.5267 394.91 61.169C396.81 60.4281 398.921 60.8918 400.343 62.3626C400.813 60.6248 402.045 59.2171 403.65 58.5859C405.095 58.0212 406.687 58.1457 408.01 58.9267C408.483 57.1962 409.714 55.7957 411.313 55.1664C412.685 54.6324 414.192 54.7179 415.476 55.4027C415.891 53.555 417.164 52.0374 418.852 51.3762C420.191 50.8543 421.661 50.9224 422.928 51.5652C423.559 50.4367 424.54 49.5694 425.7 49.1146C426.789 48.6897 427.972 48.6528 429.067 49.0096C429.638 48.0793 430.453 47.343 431.41 46.8939C425.022 36.1811 406.433 13.3036 392.471 18.4749Z" fill="#D40000"/>
<path d="M374.838 67.6643C375.625 67.3569 376.467 67.2507 377.293 67.3547C378.118 67.4586 378.904 67.7696 379.586 68.2619C380.2 66.9854 381.249 65.9958 382.516 65.497C383.227 65.2195 383.982 65.1054 384.731 65.1624C385.48 65.2195 386.205 65.4463 386.856 65.8275C387.488 64.8099 388.412 64.0303 389.487 63.6065C390.61 63.1672 391.832 63.1407 392.954 63.5313C393.563 62.731 394.366 62.1185 395.273 61.7607C396.205 61.3976 397.208 61.317 398.169 61.5282C399.13 61.7393 400.009 62.2336 400.706 62.9545C400.938 62.098 401.359 61.3082 401.934 60.6511C402.51 59.994 403.223 59.4888 404.014 59.1777C404.728 58.8987 405.487 58.7847 406.239 58.8435C406.992 58.9023 407.72 59.1326 408.373 59.5186C408.607 58.6657 409.028 57.8795 409.603 57.2255C410.177 56.5714 410.888 56.0684 411.677 55.7583C412.355 55.494 413.075 55.3786 413.791 55.4192C414.507 55.4598 415.204 55.6556 415.84 55.9943C416.044 55.0851 416.46 54.2398 417.05 53.5362C417.64 52.8325 418.385 52.2932 419.216 51.9678C419.878 51.7095 420.58 51.5931 421.28 51.6256C421.98 51.6581 422.664 51.8387 423.291 52.1569C423.922 51.0284 424.903 50.1611 426.063 49.7064C427.152 49.2816 428.336 49.2447 429.431 49.6015C430.062 48.5697 430.993 47.7789 432.08 47.3509C433.133 46.9392 434.275 46.8897 435.341 47.2097C436.407 47.5296 437.341 48.2024 438.008 49.1304C438.789 49.3702 439.502 49.8008 440.09 50.3879C440.678 50.975 441.125 51.7022 441.395 52.5116C441.804 53.7465 441.781 55.1046 441.329 56.3426C440.877 57.5807 440.026 58.6177 438.928 59.2681C438.768 60.2441 438.365 61.163 437.761 61.9298C437.158 62.6966 436.374 63.2836 435.493 63.6301C434.839 63.8843 434.147 64.0003 433.456 63.9716C432.766 65.0808 431.768 65.9246 430.608 66.3815C429.883 66.6644 429.113 66.7889 428.343 66.7478C427.574 66.7067 426.82 66.5008 426.125 66.142C425.845 66.8772 425.421 67.5443 424.882 68.0992C424.343 68.6541 423.701 69.084 422.999 69.3604C422.099 69.7105 421.132 69.7973 420.2 69.6115C419.592 70.9267 418.525 71.9487 417.229 72.4582C416.298 72.8213 415.294 72.9018 414.333 72.6907C413.373 72.4795 412.493 71.9852 411.797 71.2644C411.565 72.1208 411.144 72.9107 410.568 73.5678C409.993 74.2248 409.28 74.7301 408.489 75.0412C407.597 75.3901 406.638 75.4803 405.713 75.3021C404.787 75.124 403.93 74.6841 403.232 74.029C403.02 74.9256 402.603 75.7575 402.016 76.4499C401.43 77.1422 400.693 77.6734 399.871 77.9954C398.573 78.5031 397.15 78.4564 395.907 77.8654C395.3 78.6524 394.505 79.2549 393.608 79.6085C392.688 79.9675 391.696 80.0506 390.745 79.8486C389.794 79.6465 388.921 79.1673 388.223 78.4645C387.943 79.1995 387.52 79.8665 386.981 80.4212C386.442 80.9759 385.8 81.4058 385.098 81.6821C384.289 81.9987 383.423 82.1027 382.576 81.985C381.729 81.8673 380.927 81.5315 380.24 81.007C379.626 81.8327 378.808 82.4644 377.88 82.8301C376.757 83.2688 375.534 83.2942 374.412 82.902C373.29 82.5098 372.336 81.7233 371.706 80.6715C370.627 80.0313 369.808 79.0002 369.396 77.7635C369.003 76.5788 369.008 75.2788 369.41 74.079C369.811 72.8791 370.586 71.8515 371.605 71.1664C371.864 70.3681 372.289 69.6383 372.849 69.0318C373.409 68.4252 374.089 67.9577 374.838 67.6643V67.6643Z" fill="white"/>
<path d="M358 60.6802C358.593 60.4757 359.227 60.4588 359.829 60.6315C360.43 60.8043 360.974 61.1595 361.396 61.6556C361.592 61.5337 361.8 61.4344 362.016 61.3593C362.426 61.2174 362.857 61.1645 363.285 61.2034C363.713 61.2424 364.13 61.3724 364.512 61.5863C364.894 61.8001 365.233 62.0934 365.511 62.4495C365.788 62.8056 365.998 63.2175 366.129 63.6617C366.295 64.2301 366.327 64.8348 366.221 65.42C366.116 66.0052 365.876 66.5522 365.524 67.0103C365.937 67.4256 366.245 67.9496 366.417 68.5316C366.548 68.9758 366.596 69.4435 366.56 69.9082C366.525 70.3729 366.405 70.8253 366.208 71.2397C366.011 71.6541 365.74 72.0223 365.412 72.3233C365.084 72.6244 364.704 72.8523 364.295 72.9941C363.549 73.2508 362.743 73.2091 362.024 72.8765C361.944 73.5451 361.69 74.1753 361.293 74.6932C360.895 75.2112 360.369 75.5956 359.778 75.8015C358.951 76.0879 358.053 76.0063 357.282 75.5745C356.511 75.1428 355.929 74.3963 355.665 73.4992C355.493 72.9104 355.466 72.2832 355.586 71.6794C354.897 71.6736 354.228 71.432 353.673 70.9892C353.118 70.5464 352.706 69.9249 352.496 69.2133C352.232 68.3162 352.307 67.3421 352.705 66.5052C353.103 65.6684 353.791 65.0374 354.618 64.751C354.987 64.6239 355.374 64.5689 355.761 64.5886C355.645 63.7547 355.807 62.9035 356.218 62.1874C356.628 61.4713 357.26 60.937 358 60.6802V60.6802Z" fill="white"/>
<g clip-path="url(#clip1)">
<path d="M387.096 124.06L389.117 126.081L393.75 121.447V127.999H396.606V121.449L401.237 126.081L403.259 124.06L398.627 119.429H405.177L405.179 116.571H398.626L403.259 111.939L401.237 109.917L396.606 114.55V108H393.75V114.551L389.117 109.917L387.096 111.939L391.727 116.571H385.179L385.177 119.427H391.727L387.096 124.06Z" fill="#C7E2FC"/>
</g>
<g clip-path="url(#clip2)">
<path d="M232.096 99.06L234.117 101.081L238.75 96.4471V102.999H241.606V96.4486L246.237 101.081L248.259 99.06L243.627 94.4286H250.177L250.179 91.5714H243.626L248.259 86.9386L246.237 84.9171L241.606 89.55V83H238.75V89.5514L234.117 84.9171L232.096 86.9386L236.727 91.5714H230.179L230.177 94.4271H236.727L232.096 99.06Z" fill="#C7E2FC"/>
</g>
<g clip-path="url(#clip3)">
<path d="M172.096 144.06L174.117 146.081L178.75 141.447V147.999H181.606V141.449L186.237 146.081L188.259 144.06L183.627 139.429H190.177L190.179 136.571H183.626L188.259 131.939L186.237 129.917L181.606 134.55V128H178.75V134.551L174.117 129.917L172.096 131.939L176.727 136.571H170.179L170.177 139.427H176.727L172.096 144.06Z" fill="#C7E2FC"/>
</g>
<g clip-path="url(#clip4)">
<path d="M740.096 188.06L742.117 190.081L746.75 185.447V191.999H749.606V185.449L754.237 190.081L756.259 188.06L751.627 183.429H758.177L758.179 180.571H751.626L756.259 175.939L754.237 173.917L749.606 178.55V172H746.75V178.551L742.117 173.917L740.096 175.939L744.727 180.571H738.179L738.177 183.427H744.727L740.096 188.06Z" fill="#C7E2FC"/>
</g>
<g clip-path="url(#clip5)">
<path d="M567.096 158.06L569.117 160.081L573.75 155.447V161.999H576.606V155.449L581.237 160.081L583.259 158.06L578.627 153.429H585.177L585.179 150.571H578.626L583.259 145.939L581.237 143.917L576.606 148.55V142H573.75V148.551L569.117 143.917L567.096 145.939L571.727 150.571H565.179L565.177 153.427H571.727L567.096 158.06Z" fill="#C7E2FC"/>
</g>
<g clip-path="url(#clip6)">
<path d="M690.096 158.06L692.117 160.081L696.75 155.447V161.999H699.606V155.449L704.237 160.081L706.259 158.06L701.627 153.429H708.177L708.179 150.571H701.626L706.259 145.939L704.237 143.917L699.606 148.55V142H696.75V148.551L692.117 143.917L690.096 145.939L694.727 150.571H688.179L688.177 153.427H694.727L690.096 158.06Z" fill="#C7E2FC"/>
</g>
<g clip-path="url(#clip7)">
<path d="M508.096 186.06L510.117 188.081L514.75 183.447V189.999H517.606V183.449L522.237 188.081L524.259 186.06L519.627 181.429H526.177L526.179 178.571H519.626L524.259 173.939L522.237 171.917L517.606 176.55V170H514.75V176.551L510.117 171.917L508.096 173.939L512.727 178.571H506.179L506.177 181.427H512.727L508.096 186.06Z" fill="#C7E2FC"/>
</g>
<g clip-path="url(#clip8)">
<path d="M323.096 198.06L325.117 200.081L329.75 195.447V201.999H332.606V195.449L337.237 200.081L339.259 198.06L334.627 193.429H341.177L341.179 190.571H334.626L339.259 185.939L337.237 183.917L332.606 188.55V182H329.75V188.551L325.117 183.917L323.096 185.939L327.727 190.571H321.179L321.177 193.427H327.727L323.096 198.06Z" fill="#C7E2FC"/>
</g>
<g clip-path="url(#clip9)">
<path d="M30.0957 273.06L32.1171 275.081L36.75 270.447V276.999H39.6057V270.449L44.2371 275.081L46.2586 273.06L41.6271 268.429H48.1771L48.1786 265.571H41.6257L46.2586 260.939L44.2371 258.917L39.6057 263.55V257H36.75V263.551L32.1171 258.917L30.0957 260.939L34.7271 265.571H28.1786L28.1771 268.427H34.7271L30.0957 273.06Z" fill="#C7E2FC"/>
</g>
<g clip-path="url(#clip10)">
<path d="M611.096 112.06L613.117 114.081L617.75 109.447V115.999H620.606V109.449L625.237 114.081L627.259 112.06L622.627 107.429H629.177L629.179 104.571H622.626L627.259 99.9386L625.237 97.9171L620.606 102.55V96H617.75V102.551L613.117 97.9171L611.096 99.9386L615.727 104.571H609.179L609.177 107.427H615.727L611.096 112.06Z" fill="#C7E2FC"/>
</g>
<path d="M193.447 65.9098L191.522 63.0237L186.652 66.2704L182.469 64.478L186.328 62.5488C186.913 62.2558 187.286 61.6544 187.284 60.9974C187.284 60.3422 186.913 59.7407 186.326 59.4477L182.469 57.5185L186.652 55.7262L191.522 58.9728L193.447 56.0867L190.456 54.0933L194.901 52.1883L193.535 49.0023L189.019 50.9385V47.1337H185.553V52.4275L180.353 54.6567L180.351 48.8654C180.351 48.2899 180.067 47.7526 179.592 47.4301C179.117 47.1095 178.515 47.0453 177.974 47.2551L171.686 49.7702V44.7347L177.659 41.7481L176.109 38.6471L171.684 40.8589V35H168.219V40.8623L163.79 38.6488L162.24 41.7498L168.219 44.7382V49.7737L161.927 47.2568C161.389 47.0453 160.786 47.1095 160.309 47.4319C159.834 47.7543 159.55 48.2916 159.55 48.8671V54.6567L154.35 52.4275V47.1337H150.883V50.9437L146.366 49.0075L145 52.1935L149.446 54.0985L146.456 56.0919L148.38 58.978L153.251 55.7314L157.432 57.5237L153.575 59.4529C152.987 59.7459 152.617 60.3474 152.617 61.0026C152.615 61.6596 152.987 62.2593 153.573 62.554L157.432 64.4832L153.249 66.2756L148.38 63.0289L146.456 65.9133L149.446 67.9067L145.002 69.8117L146.368 72.9977L150.885 71.0615V74.868H154.352V69.5708L159.552 67.3416V73.1346C159.552 73.7101 159.836 74.2474 160.311 74.5698C160.601 74.7657 160.942 74.868 161.283 74.868C161.5 74.868 161.719 74.8264 161.927 74.7432L168.219 72.2263V77.2618L162.242 80.2502L163.792 83.3512L168.219 81.1377V87H171.684V81.1377L176.109 83.3495L177.659 80.2484L171.686 77.2618V72.2263L177.974 74.7415C178.181 74.8264 178.399 74.868 178.616 74.868C178.957 74.868 179.299 74.7657 179.59 74.5698C180.065 74.2474 180.349 73.7101 180.349 73.1346L180.351 67.3433L185.551 69.5725V74.868H189.018V71.058L193.533 72.9942L194.899 69.8082L190.456 67.9032L193.447 65.9098ZM181.675 61.0009L178.295 62.6909L174.352 61.0009L178.295 59.3108L181.675 61.0009ZM176.884 51.4256L176.886 56.1404L171.684 58.3696V53.5057L176.884 51.4256ZM163.015 51.4256L168.219 53.5074V58.3713L163.015 56.1404V51.4256ZM158.224 61.0009L161.604 59.3108L165.548 61.0009L161.604 62.6909L158.224 61.0009ZM163.015 70.5744V65.8578L168.219 63.627V68.4926L163.015 70.5744ZM176.884 70.5744L171.684 68.4943V63.6287L176.886 65.8578L176.884 70.5744Z" fill="#C7E2FC"/>
<path d="M652.447 192.91L650.522 190.024L645.652 193.27L641.469 191.478L645.328 189.549C645.913 189.256 646.286 188.654 646.284 187.997C646.284 187.342 645.913 186.741 645.326 186.448L641.469 184.518L645.652 182.726L650.522 185.973L652.447 183.087L649.456 181.093L653.901 179.188L652.535 176.002L648.019 177.939V174.134H644.553V179.428L639.353 181.657L639.351 175.865C639.351 175.29 639.067 174.753 638.592 174.43C638.117 174.109 637.515 174.045 636.974 174.255L630.686 176.77V171.735L636.659 168.748L635.109 165.647L630.684 167.859V162H627.219V167.862L622.79 165.649L621.24 168.75L627.219 171.738V176.774L620.927 174.257C620.389 174.045 619.786 174.109 619.309 174.432C618.834 174.754 618.55 175.292 618.55 175.867V181.657L613.35 179.428V174.134H609.883V177.944L605.366 176.008L604 179.194L608.446 181.099L605.456 183.092L607.38 185.978L612.251 182.731L616.432 184.524L612.575 186.453C611.987 186.746 611.617 187.347 611.617 188.003C611.615 188.66 611.987 189.259 612.573 189.554L616.432 191.483L612.249 193.276L607.38 190.029L605.456 192.913L608.446 194.907L604.002 196.812L605.368 199.998L609.885 198.061V201.868H613.352V196.571L618.552 194.342V200.135C618.552 200.71 618.836 201.247 619.311 201.57C619.601 201.766 619.942 201.868 620.283 201.868C620.5 201.868 620.719 201.826 620.927 201.743L627.219 199.226V204.262L621.242 207.25L622.792 210.351L627.219 208.138V214H630.684V208.138L635.109 210.349L636.659 207.248L630.686 204.262V199.226L636.974 201.741C637.181 201.826 637.399 201.868 637.616 201.868C637.957 201.868 638.299 201.766 638.59 201.57C639.065 201.247 639.349 200.71 639.349 200.135L639.351 194.343L644.551 196.572V201.868H648.018V198.058L652.533 199.994L653.899 196.808L649.456 194.903L652.447 192.91ZM640.675 188.001L637.295 189.691L633.352 188.001L637.295 186.311L640.675 188.001ZM635.884 178.426L635.886 183.14L630.684 185.37V180.506L635.884 178.426ZM622.015 178.426L627.219 180.507V185.371L622.015 183.14V178.426ZM617.224 188.001L620.604 186.311L624.548 188.001L620.604 189.691L617.224 188.001ZM622.015 197.574V192.858L627.219 190.627V195.493L622.015 197.574ZM635.884 197.574L630.684 195.494V190.629L635.886 192.858L635.884 197.574Z" fill="#C7E2FC"/>
<path d="M524.447 114.91L522.522 112.024L517.652 115.27L513.469 113.478L517.328 111.549C517.913 111.256 518.286 110.654 518.284 109.997C518.284 109.342 517.913 108.741 517.326 108.448L513.469 106.518L517.652 104.726L522.522 107.973L524.447 105.087L521.456 103.093L525.901 101.188L524.535 98.0023L520.019 99.9385V96.1337H516.553V101.428L511.353 103.657L511.351 97.8654C511.351 97.2899 511.067 96.7526 510.592 96.4301C510.117 96.1095 509.515 96.0453 508.974 96.2551L502.686 98.7702V93.7347L508.659 90.7481L507.109 87.6471L502.684 89.8589V84H499.219V89.8623L494.79 87.6488L493.24 90.7498L499.219 93.7382V98.7737L492.927 96.2568C492.389 96.0453 491.786 96.1095 491.309 96.4319C490.834 96.7543 490.55 97.2916 490.55 97.8671V103.657L485.35 101.428V96.1337H481.883V99.9437L477.366 98.0075L476 101.194L480.446 103.099L477.456 105.092L479.38 107.978L484.251 104.731L488.432 106.524L484.575 108.453C483.987 108.746 483.617 109.347 483.617 110.003C483.615 110.66 483.987 111.259 484.573 111.554L488.432 113.483L484.249 115.276L479.38 112.029L477.456 114.913L480.446 116.907L476.002 118.812L477.368 121.998L481.885 120.061V123.868H485.352V118.571L490.552 116.342V122.135C490.552 122.71 490.836 123.247 491.311 123.57C491.601 123.766 491.942 123.868 492.283 123.868C492.5 123.868 492.719 123.826 492.927 123.743L499.219 121.226V126.262L493.242 129.25L494.792 132.351L499.219 130.138V136H502.684V130.138L507.109 132.349L508.659 129.248L502.686 126.262V121.226L508.974 123.741C509.181 123.826 509.399 123.868 509.616 123.868C509.957 123.868 510.299 123.766 510.59 123.57C511.065 123.247 511.349 122.71 511.349 122.135L511.351 116.343L516.551 118.572V123.868H520.018V120.058L524.533 121.994L525.899 118.808L521.456 116.903L524.447 114.91ZM512.675 110.001L509.295 111.691L505.352 110.001L509.295 108.311L512.675 110.001ZM507.884 100.426L507.886 105.14L502.684 107.37V102.506L507.884 100.426ZM494.015 100.426L499.219 102.507V107.371L494.015 105.14V100.426ZM489.224 110.001L492.604 108.311L496.548 110.001L492.604 111.691L489.224 110.001ZM494.015 119.574V114.858L499.219 112.627V117.493L494.015 119.574ZM507.884 119.574L502.684 117.494V112.629L507.886 114.858L507.884 119.574Z" fill="#C7E2FC"/>
<path d="M459.447 196.91L457.522 194.024L452.652 197.27L448.469 195.478L452.328 193.549C452.913 193.256 453.286 192.654 453.284 191.997C453.284 191.342 452.913 190.741 452.326 190.448L448.469 188.518L452.652 186.726L457.522 189.973L459.447 187.087L456.456 185.093L460.901 183.188L459.535 180.002L455.019 181.939V178.134H451.553V183.428L446.353 185.657L446.351 179.865C446.351 179.29 446.067 178.753 445.592 178.43C445.117 178.109 444.515 178.045 443.974 178.255L437.686 180.77V175.735L443.659 172.748L442.109 169.647L437.684 171.859V166H434.219V171.862L429.79 169.649L428.24 172.75L434.219 175.738V180.774L427.927 178.257C427.389 178.045 426.786 178.109 426.309 178.432C425.834 178.754 425.55 179.292 425.55 179.867V185.657L420.35 183.428V178.134H416.883V181.944L412.366 180.008L411 183.194L415.446 185.099L412.456 187.092L414.38 189.978L419.251 186.731L423.432 188.524L419.575 190.453C418.987 190.746 418.617 191.347 418.617 192.003C418.615 192.66 418.987 193.259 419.573 193.554L423.432 195.483L419.249 197.276L414.38 194.029L412.456 196.913L415.446 198.907L411.002 200.812L412.368 203.998L416.885 202.061V205.868H420.352V200.571L425.552 198.342V204.135C425.552 204.71 425.836 205.247 426.311 205.57C426.601 205.766 426.942 205.868 427.283 205.868C427.5 205.868 427.719 205.826 427.927 205.743L434.219 203.226V208.262L428.242 211.25L429.792 214.351L434.219 212.138V218H437.684V212.138L442.109 214.349L443.659 211.248L437.686 208.262V203.226L443.974 205.741C444.181 205.826 444.399 205.868 444.616 205.868C444.957 205.868 445.299 205.766 445.59 205.57C446.065 205.247 446.349 204.71 446.349 204.135L446.351 198.343L451.551 200.572V205.868H455.018V202.058L459.533 203.994L460.899 200.808L456.456 198.903L459.447 196.91ZM447.675 192.001L444.295 193.691L440.352 192.001L444.295 190.311L447.675 192.001ZM442.884 182.426L442.886 187.14L437.684 189.37V184.506L442.884 182.426ZM429.015 182.426L434.219 184.507V189.371L429.015 187.14V182.426ZM424.224 192.001L427.604 190.311L431.548 192.001L427.604 193.691L424.224 192.001ZM429.015 201.574V196.858L434.219 194.627V199.493L429.015 201.574ZM442.884 201.574L437.684 199.494V194.629L442.886 196.858L442.884 201.574Z" fill="#C7E2FC"/>
<path d="M111.447 235.91L109.522 233.024L104.652 236.27L100.469 234.478L104.328 232.549C104.913 232.256 105.286 231.654 105.284 230.997C105.284 230.342 104.913 229.741 104.326 229.448L100.469 227.518L104.652 225.726L109.522 228.973L111.447 226.087L108.456 224.093L112.901 222.188L111.535 219.002L107.019 220.939V217.134H103.553V222.428L98.3525 224.657L98.3508 218.865C98.3508 218.29 98.0665 217.753 97.5916 217.43C97.1166 217.109 96.5151 217.045 95.9743 217.255L89.6856 219.77V214.735L95.6588 211.748L94.1092 208.647L89.6838 210.859V205H86.2188V210.862L81.79 208.649L80.2403 211.75L86.2188 214.738V219.774L79.9266 217.257C79.3892 217.045 78.786 217.109 78.3093 217.432C77.8344 217.754 77.5501 218.292 77.5501 218.867V224.657L72.3499 222.428V217.134H68.8831V220.944L64.3659 219.008L63 222.194L67.4461 224.099L64.456 226.092L66.3801 228.978L71.2509 225.731L75.4319 227.524L71.5751 229.453C70.9875 229.746 70.6165 230.347 70.6165 231.003C70.6148 231.66 70.9875 232.259 71.5734 232.554L75.4319 234.483L71.2492 236.276L66.3801 233.029L64.456 235.913L67.4461 237.907L63.0017 239.812L64.3676 242.998L68.8849 241.061V244.868H72.3516V239.571L77.5518 237.342V243.135C77.5518 243.71 77.8361 244.247 78.311 244.57C78.6005 244.766 78.942 244.868 79.2835 244.868C79.5002 244.868 79.7186 244.826 79.9266 244.743L86.2188 242.226V247.262L80.242 250.25L81.7917 253.351L86.2188 251.138V257H89.6838V251.138L94.1092 253.349L95.6588 250.248L89.6856 247.262V242.226L95.9743 244.741C96.1806 244.826 96.399 244.868 96.6157 244.868C96.9571 244.868 97.2986 244.766 97.5898 244.57C98.0648 244.247 98.349 243.71 98.349 243.135L98.3508 237.343L103.551 239.572V244.868H107.018V241.058L111.533 242.994L112.899 239.808L108.456 237.903L111.447 235.91ZM99.6751 231.001L96.295 232.691L92.3515 231.001L96.295 229.311L99.6751 231.001ZM94.884 221.426L94.8857 226.14L89.6838 228.37V223.506L94.884 221.426ZM81.0151 221.426L86.2188 223.507V228.371L81.0151 226.14V221.426ZM76.224 231.001L79.6042 229.311L83.5476 231.001L79.6042 232.691L76.224 231.001ZM81.0151 240.574V235.858L86.2188 233.627V238.493L81.0151 240.574ZM94.884 240.574L89.6838 238.494V233.629L94.8857 235.858L94.884 240.574Z" fill="#C7E2FC"/>
<path d="M266.447 183.91L264.522 181.024L259.652 184.27L255.469 182.478L259.328 180.549C259.913 180.256 260.286 179.654 260.284 178.997C260.284 178.342 259.913 177.741 259.326 177.448L255.469 175.518L259.652 173.726L264.522 176.973L266.447 174.087L263.456 172.093L267.901 170.188L266.535 167.002L262.019 168.939V165.134H258.553V170.428L253.353 172.657L253.351 166.865C253.351 166.29 253.067 165.753 252.592 165.43C252.117 165.109 251.515 165.045 250.974 165.255L244.686 167.77V162.735L250.659 159.748L249.109 156.647L244.684 158.859V153H241.219V158.862L236.79 156.649L235.24 159.75L241.219 162.738V167.774L234.927 165.257C234.389 165.045 233.786 165.109 233.309 165.432C232.834 165.754 232.55 166.292 232.55 166.867V172.657L227.35 170.428V165.134H223.883V168.944L219.366 167.008L218 170.194L222.446 172.099L219.456 174.092L221.38 176.978L226.251 173.731L230.432 175.524L226.575 177.453C225.987 177.746 225.617 178.347 225.617 179.003C225.615 179.66 225.987 180.259 226.573 180.554L230.432 182.483L226.249 184.276L221.38 181.029L219.456 183.913L222.446 185.907L218.002 187.812L219.368 190.998L223.885 189.061V192.868H227.352V187.571L232.552 185.342V191.135C232.552 191.71 232.836 192.247 233.311 192.57C233.601 192.766 233.942 192.868 234.283 192.868C234.5 192.868 234.719 192.826 234.927 192.743L241.219 190.226V195.262L235.242 198.25L236.792 201.351L241.219 199.138V205H244.684V199.138L249.109 201.349L250.659 198.248L244.686 195.262V190.226L250.974 192.741C251.181 192.826 251.399 192.868 251.616 192.868C251.957 192.868 252.299 192.766 252.59 192.57C253.065 192.247 253.349 191.71 253.349 191.135L253.351 185.343L258.551 187.572V192.868H262.018V189.058L266.533 190.994L267.899 187.808L263.456 185.903L266.447 183.91ZM254.675 179.001L251.295 180.691L247.352 179.001L251.295 177.311L254.675 179.001ZM249.884 169.426L249.886 174.14L244.684 176.37V171.506L249.884 169.426ZM236.015 169.426L241.219 171.507V176.371L236.015 174.14V169.426ZM231.224 179.001L234.604 177.311L238.548 179.001L234.604 180.691L231.224 179.001ZM236.015 188.574V183.858L241.219 181.627V186.493L236.015 188.574ZM249.884 188.574L244.684 186.494V181.629L249.886 183.858L249.884 188.574Z" fill="#C7E2FC"/>
<path d="M840.447 235.91L838.522 233.024L833.652 236.27L829.469 234.478L833.328 232.549C833.913 232.256 834.286 231.654 834.284 230.997C834.284 230.342 833.913 229.741 833.326 229.448L829.469 227.518L833.652 225.726L838.522 228.973L840.447 226.087L837.456 224.093L841.901 222.188L840.535 219.002L836.019 220.939V217.134H832.553V222.428L827.353 224.657L827.351 218.865C827.351 218.29 827.067 217.753 826.592 217.43C826.117 217.109 825.515 217.045 824.974 217.255L818.686 219.77V214.735L824.659 211.748L823.109 208.647L818.684 210.859V205H815.219V210.862L810.79 208.649L809.24 211.75L815.219 214.738V219.774L808.927 217.257C808.389 217.045 807.786 217.109 807.309 217.432C806.834 217.754 806.55 218.292 806.55 218.867V224.657L801.35 222.428V217.134H797.883V220.944L793.366 219.008L792 222.194L796.446 224.099L793.456 226.092L795.38 228.978L800.251 225.731L804.432 227.524L800.575 229.453C799.987 229.746 799.617 230.347 799.617 231.003C799.615 231.66 799.987 232.259 800.573 232.554L804.432 234.483L800.249 236.276L795.38 233.029L793.456 235.913L796.446 237.907L792.002 239.812L793.368 242.998L797.885 241.061V244.868H801.352V239.571L806.552 237.342V243.135C806.552 243.71 806.836 244.247 807.311 244.57C807.601 244.766 807.942 244.868 808.283 244.868C808.5 244.868 808.719 244.826 808.927 244.743L815.219 242.226V247.262L809.242 250.25L810.792 253.351L815.219 251.138V257H818.684V251.138L823.109 253.349L824.659 250.248L818.686 247.262V242.226L824.974 244.741C825.181 244.826 825.399 244.868 825.616 244.868C825.957 244.868 826.299 244.766 826.59 244.57C827.065 244.247 827.349 243.71 827.349 243.135L827.351 237.343L832.551 239.572V244.868H836.018V241.058L840.533 242.994L841.899 239.808L837.456 237.903L840.447 235.91ZM828.675 231.001L825.295 232.691L821.352 231.001L825.295 229.311L828.675 231.001ZM823.884 221.426L823.886 226.14L818.684 228.37V223.506L823.884 221.426ZM810.015 221.426L815.219 223.507V228.371L810.015 226.14V221.426ZM805.224 231.001L808.604 229.311L812.548 231.001L808.604 232.691L805.224 231.001ZM810.015 240.574V235.858L815.219 233.627V238.493L810.015 240.574ZM823.884 240.574L818.684 238.494V233.629L823.886 235.858L823.884 240.574Z" fill="#C7E2FC"/>
<path d="M342.447 106.91L340.522 104.024L335.652 107.27L331.469 105.478L335.328 103.549C335.913 103.256 336.286 102.654 336.284 101.997C336.284 101.342 335.913 100.741 335.326 100.448L331.469 98.5185L335.652 96.7262L340.522 99.9728L342.447 97.0867L339.456 95.0933L343.901 93.1883L342.535 90.0023L338.019 91.9385V88.1337H334.553V93.4275L329.353 95.6567L329.351 89.8654C329.351 89.2899 329.067 88.7526 328.592 88.4301C328.117 88.1095 327.515 88.0453 326.974 88.2551L320.686 90.7702V85.7347L326.659 82.7481L325.109 79.6471L320.684 81.8589V76H317.219V81.8623L312.79 79.6488L311.24 82.7498L317.219 85.7382V90.7737L310.927 88.2568C310.389 88.0453 309.786 88.1095 309.309 88.4319C308.834 88.7543 308.55 89.2916 308.55 89.8671V95.6567L303.35 93.4275V88.1337H299.883V91.9437L295.366 90.0075L294 93.1935L298.446 95.0985L295.456 97.0919L297.38 99.978L302.251 96.7314L306.432 98.5237L302.575 100.453C301.987 100.746 301.617 101.347 301.617 102.003C301.615 102.66 301.987 103.259 302.573 103.554L306.432 105.483L302.249 107.276L297.38 104.029L295.456 106.913L298.446 108.907L294.002 110.812L295.368 113.998L299.885 112.061V115.868H303.352V110.571L308.552 108.342V114.135C308.552 114.71 308.836 115.247 309.311 115.57C309.601 115.766 309.942 115.868 310.283 115.868C310.5 115.868 310.719 115.826 310.927 115.743L317.219 113.226V118.262L311.242 121.25L312.792 124.351L317.219 122.138V128H320.684V122.138L325.109 124.349L326.659 121.248L320.686 118.262V113.226L326.974 115.741C327.181 115.826 327.399 115.868 327.616 115.868C327.957 115.868 328.299 115.766 328.59 115.57C329.065 115.247 329.349 114.71 329.349 114.135L329.351 108.343L334.551 110.572V115.868H338.018V112.058L342.533 113.994L343.899 110.808L339.456 108.903L342.447 106.91ZM330.675 102.001L327.295 103.691L323.352 102.001L327.295 100.311L330.675 102.001ZM325.884 92.4256L325.886 97.1404L320.684 99.3696V94.5057L325.884 92.4256ZM312.015 92.4256L317.219 94.5074V99.3713L312.015 97.1404V92.4256ZM307.224 102.001L310.604 100.311L314.548 102.001L310.604 103.691L307.224 102.001ZM312.015 111.574V106.858L317.219 104.627V109.493L312.015 111.574ZM325.884 111.574L320.684 109.494V104.629L325.886 106.858L325.884 111.574Z" fill="#C7E2FC"/>
<path d="M786.447 113.91L784.522 111.024L779.652 114.27L775.469 112.478L779.328 110.549C779.913 110.256 780.286 109.654 780.284 108.997C780.284 108.342 779.913 107.741 779.326 107.448L775.469 105.518L779.652 103.726L784.522 106.973L786.447 104.087L783.456 102.093L787.901 100.188L786.535 97.0023L782.019 98.9385V95.1337H778.553V100.428L773.353 102.657L773.351 96.8654C773.351 96.2899 773.067 95.7526 772.592 95.4301C772.117 95.1095 771.515 95.0453 770.974 95.2551L764.686 97.7702V92.7347L770.659 89.7481L769.109 86.6471L764.684 88.8589V83H761.219V88.8623L756.79 86.6488L755.24 89.7498L761.219 92.7382V97.7737L754.927 95.2568C754.389 95.0453 753.786 95.1095 753.309 95.4319C752.834 95.7543 752.55 96.2916 752.55 96.8671V102.657L747.35 100.428V95.1337H743.883V98.9437L739.366 97.0075L738 100.194L742.446 102.099L739.456 104.092L741.38 106.978L746.251 103.731L750.432 105.524L746.575 107.453C745.987 107.746 745.617 108.347 745.617 109.003C745.615 109.66 745.987 110.259 746.573 110.554L750.432 112.483L746.249 114.276L741.38 111.029L739.456 113.913L742.446 115.907L738.002 117.812L739.368 120.998L743.885 119.061V122.868H747.352V117.571L752.552 115.342V121.135C752.552 121.71 752.836 122.247 753.311 122.57C753.601 122.766 753.942 122.868 754.283 122.868C754.5 122.868 754.719 122.826 754.927 122.743L761.219 120.226V125.262L755.242 128.25L756.792 131.351L761.219 129.138V135H764.684V129.138L769.109 131.349L770.659 128.248L764.686 125.262V120.226L770.974 122.741C771.181 122.826 771.399 122.868 771.616 122.868C771.957 122.868 772.299 122.766 772.59 122.57C773.065 122.247 773.349 121.71 773.349 121.135L773.351 115.343L778.551 117.572V122.868H782.018V119.058L786.533 120.994L787.899 117.808L783.456 115.903L786.447 113.91ZM774.675 109.001L771.295 110.691L767.352 109.001L771.295 107.311L774.675 109.001ZM769.884 99.4256L769.886 104.14L764.684 106.37V101.506L769.884 99.4256ZM756.015 99.4256L761.219 101.507V106.371L756.015 104.14V99.4256ZM751.224 109.001L754.604 107.311L758.548 109.001L754.604 110.691L751.224 109.001ZM756.015 118.574V113.858L761.219 111.627V116.493L756.015 118.574ZM769.884 118.574L764.684 116.494V111.629L769.886 113.858L769.884 118.574Z" fill="#C7E2FC"/>
<path d="M169.995 241C169.995 235.485 165.515 231 160 231C154.48 231 150 235.485 150 241C150 246.515 154.48 251 160 251C165.515 250.995 169.995 246.51 169.995 241Z" fill="#A1CDFB"/>
<path d="M167.825 234.85C165.995 232.525 163.185 231 160 231C154.48 231 150 235.485 150 241C150 243.875 151.235 246.445 153.18 248.27C160.27 246.975 165.905 241.705 167.825 234.85Z" fill="#C7E2FC"/>
<path d="M287.995 58C287.995 52.485 283.515 48 278 48C272.48 48 268 52.485 268 58C268 63.515 272.48 68 278 68C283.515 67.995 287.995 63.51 287.995 58Z" fill="#A1CDFB"/>
<path d="M285.825 51.85C283.995 49.525 281.185 48 278 48C272.48 48 268 52.485 268 58C268 60.875 269.235 63.445 271.18 65.27C278.27 63.975 283.905 58.705 285.825 51.85Z" fill="#C7E2FC"/>
<path d="M386.995 182C386.995 176.485 382.515 172 377 172C371.48 172 367 176.485 367 182C367 187.515 371.48 192 377 192C382.515 191.995 386.995 187.51 386.995 182Z" fill="#A1CDFB"/>
<path d="M384.825 175.85C382.995 173.525 380.185 172 377 172C371.48 172 367 176.485 367 182C367 184.875 368.235 187.445 370.18 189.27C377.27 187.975 382.905 182.705 384.825 175.85Z" fill="#C7E2FC"/>
<path d="M826.995 99C826.995 93.485 822.515 89 817 89C811.48 89 807 93.485 807 99C807 104.515 811.48 109 817 109C822.515 108.995 826.995 104.51 826.995 99Z" fill="#A1CDFB"/>
<path d="M824.825 92.85C822.995 90.525 820.185 89 817 89C811.48 89 807 93.485 807 99C807 101.875 808.235 104.445 810.18 106.27C817.27 104.975 822.905 99.705 824.825 92.85Z" fill="#C7E2FC"/>
<g clip-path="url(#clip11)">
<path d="M172.096 214.06L174.117 216.081L178.75 211.447V217.999H181.606V211.449L186.237 216.081L188.259 214.06L183.627 209.429H190.177L190.179 206.571H183.626L188.259 201.939L186.237 199.917L181.606 204.55V198H178.75V204.551L174.117 199.917L172.096 201.939L176.727 206.571H170.179L170.177 209.427H176.727L172.096 214.06Z" fill="#C7E2FC"/>
</g>
</g>
<defs>
<clipPath id="clip0">
<rect width="841.89" height="283.465" fill="white"/>
</clipPath>
<clipPath id="clip1">
<rect width="20.1786" height="20" fill="white" transform="translate(385 108)"/>
</clipPath>
<clipPath id="clip2">
<rect width="20.1786" height="20" fill="white" transform="translate(230 83)"/>
</clipPath>
<clipPath id="clip3">
<rect width="20.1786" height="20" fill="white" transform="translate(170 128)"/>
</clipPath>
<clipPath id="clip4">
<rect width="20.1786" height="20" fill="white" transform="translate(738 172)"/>
</clipPath>
<clipPath id="clip5">
<rect width="20.1786" height="20" fill="white" transform="translate(565 142)"/>
</clipPath>
<clipPath id="clip6">
<rect width="20.1786" height="20" fill="white" transform="translate(688 142)"/>
</clipPath>
<clipPath id="clip7">
<rect width="20.1786" height="20" fill="white" transform="translate(506 170)"/>
</clipPath>
<clipPath id="clip8">
<rect width="20.1786" height="20" fill="white" transform="translate(321 182)"/>
</clipPath>
<clipPath id="clip9">
<rect width="20.1786" height="20" fill="white" transform="translate(28 257)"/>
</clipPath>
<clipPath id="clip10">
<rect width="20.1786" height="20" fill="white" transform="translate(609 96)"/>
</clipPath>
<clipPath id="clip11">
<rect width="20.1786" height="20" fill="white" transform="translate(170 198)"/>
</clipPath>
</defs>
</svg>
