<?xml version="1.0" encoding="UTF-8" standalone="no"?><!-- Generator: Gravit.io -->
<svg xmlns="http://www.w3.org/2000/svg" xmlns:xlink="http://www.w3.org/1999/xlink" style="isolation:isolate"
     viewBox="0 0 841.89 283.465" width="841.89pt" height="283.465pt">
    <defs>
        <clipPath id="_clipPath_MfNofpNXPEVi2r3IHMutQBxu2f499gf9">
            <rect width="841.89" height="283.465"/>
        </clipPath>
    </defs>
    <g clip-path="url(#_clipPath_MfNofpNXPEVi2r3IHMutQBxu2f499gf9)">
        <g>
            <path d=" M 315.557 196.799 L 354.371 196.799 C 368.317 196.799 377.784 193.886 382.772 188.06 C 387.76 182.235 390.236 170.182 390.236 151.977 L 390.236 66.009 L 424.572 66.009 L 424.572 159.259 C 424.572 170.328 423.444 179.686 421.149 187.259 C 418.892 194.833 415.36 201.205 410.59 206.412 C 405.128 212.456 398.756 216.716 391.51 219.156 C 384.265 221.595 373.341 222.833 358.777 222.833 L 315.557 222.833 L 315.557 196.799 L 315.557 196.799 Z  M 483.34 94.629 L 451.444 94.629 L 451.444 66.046 L 483.34 66.046 L 483.34 94.629 Z  M 483.34 222.833 L 451.444 222.833 L 451.444 107.737 L 483.34 107.737 L 483.34 222.833 Z  M 498.196 107.737 L 519.642 107.737 L 519.642 66.009 L 550.046 66.009 L 550.046 107.737 L 582.161 107.737 L 582.161 130.676 L 550.046 130.676 L 550.046 177.173 C 550.046 185.694 551.502 191.629 554.415 194.942 C 557.328 198.256 562.426 199.894 569.671 199.894 L 582.161 199.894 L 582.161 222.833 L 554.415 222.833 C 543.201 222.833 534.571 219.738 528.599 213.512 C 522.628 207.285 519.642 198.365 519.642 186.786 L 519.642 130.676 L 498.196 130.676 L 498.196 107.737 L 498.196 107.737 Z  M 598.254 198.838 L 662.338 198.838 C 668.019 198.838 672.169 197.964 674.755 196.18 C 677.34 194.396 678.651 191.556 678.651 187.623 C 678.651 183.727 677.34 180.851 674.718 179.067 C 672.06 177.246 667.946 176.336 662.338 176.336 L 636.086 176.336 C 620.538 176.336 610.015 173.969 604.517 169.199 C 599.055 164.429 596.325 155.945 596.325 143.784 C 596.325 131.404 599.638 122.301 606.229 116.476 C 612.855 110.65 623.087 107.737 636.96 107.737 L 702.245 107.737 L 702.245 131.732 L 648.575 131.732 C 639.836 131.732 634.156 132.497 631.498 134.026 C 628.876 135.555 627.566 138.286 627.566 142.182 C 627.566 145.751 628.731 148.372 631.024 150.047 C 633.355 151.722 636.996 152.559 641.948 152.559 L 669.475 152.559 C 682.074 152.559 691.686 155.509 698.276 161.371 C 704.904 167.233 708.217 175.717 708.217 186.786 C 708.217 197.454 705.267 206.12 699.405 212.82 C 693.543 219.483 685.969 222.833 676.721 222.833 L 598.254 222.833 L 598.254 198.838 L 598.254 198.838 Z  M 834.091 222.833 L 776.816 222.833 C 759.957 222.833 747.759 219.483 740.259 212.82 C 732.758 206.12 729.007 195.415 729.007 180.705 L 729.007 107.737 L 759.302 107.737 L 759.302 178.266 C 759.302 185.949 760.649 191.046 763.307 193.631 C 765.965 196.18 771.281 197.454 779.255 197.454 L 803.687 197.454 L 803.687 107.737 L 834.091 107.737 L 834.091 222.833 L 834.091 222.833 Z "
                  fill="white"/>
            <path d=" M 127.503 179.118 L 54.301 179.118 C 35.533 179.118 25.051 194.531 18.986 218.3 L 113.564 218.3 L 114.809 214.799 L 127.503 179.118 Z  M 275.42 60.026 C 279.178 60.026 280.473 60.026 284.23 60.026 C 304.193 60.026 315.088 38.484 320.557 20.82 L 286.905 20.82 L 247.754 20.82 L 233.807 60.026 L 191.44 179.118 L 177.492 218.324 C 221.995 218.324 233.053 179.118 233.053 179.118 L 275.42 60.026 Z "
                  fill-rule="evenodd" fill="white"/>
            <path d=" M 180.278 179.118 L 222.645 60.026 L 236.593 20.82 L 211.885 20.82 C 207.525 20.82 194.384 22.494 187.492 41.866 L 181.032 60.026 L 138.665 179.118 L 132.146 197.441 C 122.579 224.335 126.356 228.816 93.904 228.816 L 15.841 228.816 L 4.113 268.023 L 107.036 268.023 C 135.883 268.023 152.479 254.488 162.598 228.816 L 166.33 218.324 L 180.278 179.118 L 180.278 179.118 Z "
                  fill-rule="evenodd" fill="white"/>
        </g>
    </g>
</svg>