<?xml version="1.0" encoding="utf-8"?>
<!-- Generator: Adobe Illustrator 23.0.6, SVG Export Plug-In . SVG Version: 6.00 Build 0)  -->
<svg version="1.1" id="Layer_1" xmlns="http://www.w3.org/2000/svg" xmlns:xlink="http://www.w3.org/1999/xlink" x="0px" y="0px"
	 viewBox="0 0 50 50" style="enable-background:new 0 0 50 50;" xml:space="preserve">
<style type="text/css">
	.st0{fill-rule:evenodd;clip-rule:evenodd;fill:#2F3766;}
</style>
<path class="st0" d="M23.1,49.3c1,1,2.5,1,3.5,0l13.2-13.4c0.2-0.2,0.2-0.3,0-0.5L36.4,32c-0.2-0.2-0.3-0.2-0.5,0L25.5,42.7
	c-0.5,0.5-1.1,0.5-1.4,0l-16.7-17c-0.5-0.5-0.5-1.1,0-1.5L24,7.3c0.5-0.5,1.1-0.5,1.4,0l10.2,10.3l0.2,0.2h6.8
	c0.3,0,0.5-0.3,0.2-0.6L26.4,0.7c-1-1-2.5-1-3.5,0L0.7,23.3c-1,1-1,2.6,0,3.5L23.1,49.3z"/>
<path class="st0" d="M24.3,29c0.2,0.2,0.5,0.2,0.6,0l3.5-3.5c0.2-0.2,0.2-0.5,0-0.6L25.1,21c-0.2-0.2-0.5-0.2-0.6,0L21,24.6
	c-0.2,0.2-0.2,0.5,0,0.6L24.3,29z M24,36.2c0.3,0.3,1,0.3,1.4,0l9.4-9.5c0.2-0.2,0.5-0.2,0.6,0l2.7,2.7c0.2,0.2,0.5,0.2,0.6,0
	l2.9-2.9c0.2-0.2,0.5-0.2,0.6,0l2.9,2.9c0.2,0.2,0.5,0.2,0.6,0l4.1-4.2c0.2-0.2,0.2-0.5,0-0.6l-2.2-2.3c-0.2-0.2-0.2-0.2-0.3-0.2
	H34.7H34c-0.2,0-0.3,0-0.3-0.2l-8.1-8.2c-0.3-0.3-1-0.3-1.4,0L13.9,24.3c-0.3,0.3-0.3,1,0,1.5L24,36.2z"/>
</svg>
