<?xml version="1.0" encoding="utf-8"?>
<!-- Generator: Adobe Illustrator 18.1.1, SVG Export Plug-In . SVG Version: 6.00 Build 0)  -->
<svg version="1.1" xmlns="http://www.w3.org/2000/svg" xmlns:xlink="http://www.w3.org/1999/xlink" x="0px" y="0px" width="128px"
   height="128px" viewBox="0 0 128 128" style="enable-background:new 0 0 128 128;" xml:space="preserve">
<g id="Placement_ONLY" style="display:none;">
</g>
<g id="BASE">
  <linearGradient id="SVGID_1_" gradientUnits="userSpaceOnUse" x1="63.9997" y1="7.0336" x2="63.9997" y2="120.7894">
    <stop  offset="0" style="stop-color:#4387FD"/>
    <stop  offset="1" style="stop-color:#4683EA"/>
  </linearGradient>
  <path style="fill:url(#SVGID_1_);" d="M27.7906,115.2166L1.54,69.7493c-2.0541-3.5578-2.0541-7.9412,0-11.499l26.2506-45.4672
    c2.0541-3.5578,5.8503-5.7495,9.9585-5.7495h52.5012c4.1082,0,7.9044,2.1917,9.9585,5.7495l26.2506,45.4672
    c2.0541,3.5578,2.0541,7.9412,0,11.499l-26.2506,45.4672c-2.0541,3.5578-5.8503,5.7495-9.9585,5.7495H37.7491
    C33.6409,120.9661,29.8448,118.7744,27.7906,115.2166z"/>
</g>
<g id="shadow">
  <g>
    <defs>
      <path id="SVGID_6_" d="M27.7908,115.2166L1.5403,69.7493c-2.0541-3.5578-2.0541-7.9412,0-11.499l26.2505-45.4672
        c2.0541-3.5578,5.8502-5.7495,9.9585-5.7495h52.501c4.1082,0,7.9044,2.1917,9.9585,5.7495l26.2505,45.4672
        c2.0541,3.5578,2.0541,7.9412,0,11.499l-26.2505,45.4672c-2.0541,3.5578-5.8502,5.7495-9.9585,5.7495h-52.501
        C33.641,120.9661,29.8449,118.7744,27.7908,115.2166z"/>
    </defs>
    <clipPath id="SVGID_2_">
      <use xlink:href="#SVGID_6_" style="overflow:visible;"/>
    </clipPath>
    <polygon style="opacity:0.07;clip-path:url(#SVGID_2_);" points="119.2289,86.4791 80.6247,47.8749 63.9997,43.4256
      49.0668,48.9745 43.3004,63.9999 47.9372,80.729 88.8747,121.6665 97.5622,121.2811"/>
  </g>
</g>
<g id="art">
  <g>
    <g>
      <path style="fill:#FFFFFF;" d="M63.9997,40.804c-12.8097,0-23.1947,10.3849-23.1947,23.1959
        c0,12.8097,10.385,23.1947,23.1947,23.1947s23.1947-10.385,23.1947-23.1947C87.1945,51.1889,76.8095,40.804,63.9997,40.804
         M63.9997,81.5988c-9.72,0-17.599-7.879-17.599-17.599s7.879-17.6007,17.599-17.6007s17.6001,7.8807,17.6001,17.6007
        S73.7197,81.5988,63.9997,81.5988"/>
      <path style="fill:#FFFFFF;" d="M52.9898,63.1041v7.2091c1.0659,1.8326,2.5751,3.3702,4.381,4.4754V63.1041H52.9898z"/>
      <path style="fill:#FFFFFF;" d="M61.6754,57.0263v19.4109c0.7448,0.1363,1.5067,0.2199,2.2892,0.2199
        c0.7145,0,1.4098-0.0752,2.093-0.189V57.0263H61.6754z"/>
      <path style="fill:#FFFFFF;" d="M70.7656,66.1008v8.5614c1.8325-1.1695,3.3478-2.7822,4.3822-4.7002v-3.8612H70.7656z"/>
      <path style="fill:#FFFFFF;" d="M80.6914,78.2867l-2.403,2.4049c-0.4239,0.4227-0.4239,1.1132,0,1.5371l9.1143,9.112
        c0.4227,0.4238,1.1144,0.4238,1.5371,0l2.403-2.4013c0.4214-0.4227,0.4214-1.1143,0-1.5365l-9.1156-9.1162
        C81.8057,77.8646,81.1129,77.8646,80.6914,78.2867"/>
    </g>
  </g>
</g>
<g id="Guides">
</g>
</svg>
