<?xml version="1.0" encoding="UTF-8" standalone="no"?>
<svg
   width="383"
   height="87"
   viewBox="0 0 383 87"
   fill="none"
   version="1.1"
   id="svg1"
   xmlns="http://www.w3.org/2000/svg"
   xmlns:svg="http://www.w3.org/2000/svg">
  <defs
     id="defs1" />
  <circle
     cx="43.5"
     cy="43.5"
     r="43.5"
     fill="#aa00ff"
     id="circle1" />
  <path
     d="M 60,44.9221 C 59.9986,49.1858 58.3012,53.2744 55.2809,56.2893 52.2606,59.3042 48.1647,60.9986 43.8934,61 H 27 V 44.9221 H 43.8934 V 26 H 60 Z"
     fill="#ffffff"
     id="path1" />
  <path
     d="m 133.13954,62.297982 c -0.001,0.32906 -0.13318,0.64422 -0.36637,0.87639 -0.23318,0.23217 -0.54889,0.36254 -0.87795,0.36254 h -17.93181 c -0.32859,0 -0.64369,-0.13049 -0.87604,-0.36284 -0.23235,-0.23234 -0.36284,-0.54751 -0.36284,-0.87609 v -7.23246 h -11.95997 v 9.53642 l 10.86775,10.90584 h 22.55053 l 10.91122,-10.90584 V 10.708833 h -11.95452 z"
     fill="currentColor"
     id="path1-1"
     style="stroke-width:0.598837" />
  <path
     d="m 161.54232,22.679644 h 12.16118 v 40.857268 h -12.16118 v 11.97087 h 36.39072 V 63.536912 H 185.67425 V 22.679644 h 12.25879 V 10.708833 h -36.39072 z"
     fill="currentColor"
     id="path2"
     style="stroke-width:0.598837" />
  <path
     d="m 210.5667,22.679644 h 13.22052 v 52.828138 h 11.97076 V 22.679644 H 249.0821 V 10.708833 h -38.5154 z"
     fill="#000000"
     id="path3"
     style="stroke-width:0.598837" />
  <path
     d="M 271.35584,10.708833 260.44982,21.614612 V 32.82472 l 32.39648,18.942472 v 10.53079 c -10e-4,0.32906 -0.13294,0.64422 -0.36589,0.87639 -0.23355,0.23217 -0.54913,0.36254 -0.87849,0.36254 h -17.93158 c -0.32876,0 -0.64375,-0.13049 -0.8761,-0.36284 -0.23234,-0.23234 -0.36289,-0.54751 -0.36289,-0.87609 v -7.23246 h -11.95458 v 9.53642 l 10.90602,10.90584 h 22.55579 L 304.8446,64.601942 V 47.414664 l -32.42403,-18.94253 v -4.553557 c 10e-4,-0.328162 0.13234,-0.642432 0.36469,-0.874481 0.23175,-0.23205 0.54614,-0.363015 0.8743,-0.364452 h 17.93158 c 0.32936,0 0.64495,0.130366 0.87789,0.362535 0.23355,0.23217 0.36529,0.547337 0.36649,0.876398 v 7.232454 H 304.7901 V 21.614612 L 293.88468,10.708833 Z"
     fill="currentColor"
     id="path4"
     style="stroke-width:0.598837" />
  <path
     d="m 360.5035,10.708833 v 51.589149 c 0,0.32858 -0.13055,0.64375 -0.3629,0.87609 -0.23235,0.23235 -0.54733,0.36284 -0.8761,0.36284 h -25.4356 c -0.16527,0.008 -0.32995,-0.019 -0.48386,-0.0785 -0.1545,-0.0595 -0.29462,-0.15037 -0.4114,-0.2669 -0.11737,-0.11653 -0.20839,-0.25618 -0.26887,-0.41002 -0.0599,-0.15378 -0.0874,-0.31846 -0.0802,-0.4835 V 10.708833 h -11.95459 v 53.893109 l 10.90542,10.90584 h 30.02748 l 10.89524,-10.90584 V 10.708833 Z"
     fill="currentColor"
     id="path5"
     style="stroke-width:0.598837" />
</svg>
